 <svg width="109" height="24" viewBox="0 0 109 24" fill="none" xmlns="http://www.w3.org/2000/svg"><path fill-rule="evenodd" clip-rule="evenodd" d="M23.3769 7.82452C22.6425 7.82452 22.0918 8.3142 21.9082 10.2724H24.8149C24.7844 8.37534 24.2642 7.82452 23.3769 7.82452ZM44.55 13.332L45.8657 4.45902L52.291 4.45902L48.6194 19.4514H42.3471L40.3887 11.1902H40.3276L38.3694 19.4514H32.0971L30.5977 13.332L21.9082 13.332C22.153 15.2597 22.9179 15.7798 23.6828 15.7798C24.4479 15.7798 24.9678 15.1985 25.121 14.4029L30.1083 14.4029C29.741 17.6157 27.5381 19.9104 23.3769 19.9104C20.0723 19.9104 17.6552 18.2277 16.5232 15.4739H16.4926V19.4514H10.0671V10.2724C10.0671 9.20138 9.60824 8.74255 8.99628 8.74255C8.38432 8.74255 7.9253 9.20138 7.9253 10.2724L7.9253 19.4514H1.5L1.5 4.45902L7.61942 4.45902L7.9253 6.75373H7.98663C9.02694 4.91785 10.5261 4 12.5149 4C15.2993 4 16.4926 5.68275 16.4926 8.43648H16.5537C17.6858 5.68275 20.1337 4 23.6828 4C25.8859 4 27.5075 4.55063 28.7007 5.80522H28.7619L28.4253 4.45902L34.8508 4.45902L36.1663 13.332H36.2277L38.0634 4.45902H42.653L44.4888 13.332H44.55ZM55.8831 11.9551C55.8831 15.0149 56.4951 15.7798 57.4129 15.7798C58.3308 15.7798 58.9427 15.0149 58.9427 11.9551C58.9427 8.89549 58.3308 8.13059 57.4129 8.13059C56.4951 8.13059 55.8831 8.89549 55.8831 11.9551ZM100.402 4C104.257 4 107.5 5.83569 107.5 11.3433C107.5 12.0776 107.47 12.5671 107.347 13.332L98.6271 13.332C98.872 15.2597 99.6369 15.7798 100.402 15.7798C101.167 15.7798 101.687 15.1985 101.84 14.4029L107.133 14.4029C106.766 17.6157 104.563 19.9104 100.096 19.9104C96.8832 19.9104 94.6189 18.3806 93.4257 15.7187H93.3645C92.3854 18.3806 90.0293 19.9104 86.6331 19.9104C83.3286 19.9104 80.9114 18.2277 79.81 15.4739H79.7488V19.4514H73.3233V10.2724C73.3233 9.20138 72.8645 8.74255 72.2526 8.74255C71.6406 8.74255 71.1816 9.20138 71.1816 10.2724V19.4514H64.7563V15.4739H64.695C63.5935 18.2277 61.0234 19.9104 57.4129 19.9104C54.0166 19.9104 51.5078 18.5335 50.2839 16.0857L53.1294 4.45883C53.8943 4.30589 55.6689 4 57.4129 4C61.0234 4 63.5935 5.68275 64.695 8.43648H64.7563V4.45883L70.8757 4.45883L71.1816 6.75373H71.2427C72.283 4.91785 73.7824 4 75.7712 4C78.5861 4 79.7488 5.68275 79.7488 8.43648H79.81C81.0032 5.68275 83.5734 4 86.939 4C90.3965 4 92.4772 5.52981 93.3645 8.13059H93.4257C94.6189 5.52981 97.0668 4 100.402 4ZM100.096 7.82452C99.3615 7.82452 98.8107 8.3142 98.6271 10.2724H101.534C101.503 8.37534 100.983 7.82452 100.096 7.82452ZM86.939 15.7798C87.551 15.7798 87.9182 15.0456 88.0712 13.332H92.783C92.7219 12.9036 92.6912 12.4448 92.6912 11.9551C92.6912 11.3738 92.7219 10.7925 92.783 10.2724H88.0712C87.9182 8.55894 87.551 8.13059 86.939 8.13059C86.1741 8.13059 85.5622 8.89549 85.5622 11.9551C85.5622 15.0149 86.1741 15.7798 86.939 15.7798Z" fill="currentColor"></path></svg>